<?xml version="1.0" standalone="no"?>
<!DOCTYPE svg PUBLIC "-//W3C//DTD SVG 20010904//EN"
 "http://www.w3.org/TR/2001/REC-SVG-20010904/DTD/svg10.dtd">
<svg version="1.0" xmlns="http://www.w3.org/2000/svg"
 width="640.000000pt" height="640.000000pt" viewBox="0 0 640.000000 640.000000"
 preserveAspectRatio="xMidYMid meet">
<metadata>
Created by potrace 1.14, written by Peter Selinger 2001-2017
</metadata>
<g transform="translate(0.000000,640.000000) scale(0.100000,-0.100000)"
fill="#000000" stroke="none">
<path d="M623 6392 l-23 -3 0 -530 0 -529 415 0 415 0 0 -2139 0 -2139 -372
-1 c-205 0 -392 0 -415 0 l-43 -1 0 -525 0 -526 1818 4 c999 1 1831 6 1847 10
17 4 80 17 140 28 183 34 348 90 527 179 85 42 231 131 248 150 3 3 25 21 50
40 76 57 222 212 289 305 95 134 206 380 227 505 3 14 8 34 11 45 4 11 7 27 8
35 1 8 8 53 16 100 21 127 18 566 -4 685 -24 129 -25 133 -42 189 -17 54 -19
59 -58 146 -57 130 -192 318 -298 413 -124 112 -397 269 -536 308 -24 7 -43
17 -44 23 -5 68 -2 149 6 155 6 4 33 16 60 26 124 44 353 178 443 258 141 126
273 299 334 437 29 65 75 203 82 245 3 17 8 43 12 58 25 115 35 420 20 597
-37 432 -241 805 -582 1062 -112 85 -206 137 -404 226 -99 44 -301 101 -450
126 -14 2 -41 7 -60 10 -59 10 -110 15 -230 22 -114 6 -3364 12 -3407 6z
m3267 -1106 c112 -21 152 -31 214 -53 156 -56 289 -157 370 -279 33 -51 72
-155 85 -231 12 -62 15 -301 6 -363 -21 -136 -85 -262 -180 -355 -74 -72 -92
-86 -170 -130 -106 -59 -232 -98 -365 -110 -52 -5 -749 -8 -1151 -6 l-76 1 0
763 c-1 419 1 764 2 767 5 8 1224 4 1265 -4z m-27 -2631 c225 -14 414 -93 553
-230 146 -146 194 -290 189 -570 -4 -179 -6 -200 -42 -298 -64 -177 -202 -313
-403 -394 -71 -29 -106 -40 -157 -49 -13 -2 -35 -7 -50 -11 -16 -4 -321 -8
-679 -10 l-651 -4 0 785 -1 785 82 3 c141 5 1057 0 1159 -7z"/>
</g>
</svg>
